<svg id="log-in" xmlns="http://www.w3.org/2000/svg" width="28.011" height="28.011" viewBox="0 0 28.011 28.011">
  <g id="Group_11836" data-name="Group 11836" transform="translate(9.337 18.674)">
    <path id="Path_23647" data-name="Path 23647" d="M15.586,21.836H10.918A2.922,2.922,0,0,1,8,18.918V16.584a.584.584,0,0,1,1.167,0v2.334a1.753,1.753,0,0,0,1.751,1.751h4.669a.584.584,0,0,1,0,1.167Z" transform="translate(-8 -16)" fill="#000"/>
  </g>
  <g id="Group_11837" data-name="Group 11837" transform="translate(0 11.671)">
    <path id="Path_23648" data-name="Path 23648" d="M12.255,11.167H.584A.584.584,0,0,1,.584,10H12.255a.584.584,0,0,1,0,1.167Z" transform="translate(0 -10)" fill="#000"/>
  </g>
  <g id="Group_11838" data-name="Group 11838" transform="translate(16.34 0)">
    <path id="Path_23649" data-name="Path 23649" d="M16.334,28.011A2.337,2.337,0,0,1,14,25.677V4.669a2.333,2.333,0,0,1,1.6-2.212l7-2.334A2.188,2.188,0,0,1,23.337,0a2.337,2.337,0,0,1,2.334,2.334V23.343a2.33,2.33,0,0,1-1.6,2.211l-7,2.334a2.191,2.191,0,0,1-.733.124Zm7-26.844a1.08,1.08,0,0,0-.35.058L15.971,3.564a1.164,1.164,0,0,0-.8,1.1V25.677a1.169,1.169,0,0,0,1.167,1.167,1.074,1.074,0,0,0,.352-.06L23.7,24.447a1.168,1.168,0,0,0,.8-1.1V2.334A1.169,1.169,0,0,0,23.337,1.167Z" transform="translate(-14 0)" fill="#000"/>
  </g>
  <g id="Group_11839" data-name="Group 11839" transform="translate(9.337)">
    <path id="Path_23650" data-name="Path 23650" d="M8.584,5.836A.584.584,0,0,1,8,5.252V2.918A2.922,2.922,0,0,1,10.918,0H24.34a.584.584,0,0,1,0,1.167H10.918A1.753,1.753,0,0,0,9.167,2.918V5.252A.584.584,0,0,1,8.584,5.836Z" transform="translate(-8)" fill="#000"/>
  </g>
  <g id="Group_11840" data-name="Group 11840" transform="translate(7.003 7.004)">
    <path id="Path_23651" data-name="Path 23651" d="M6.584,16.5a.583.583,0,0,1-.413-1l4.257-4.257L6.17,7A.583.583,0,0,1,7,6.171l4.669,4.669a.584.584,0,0,1,0,.825L7,16.334a.581.581,0,0,1-.412.17Z" transform="translate(-6 -6.001)" fill="#000"/>
  </g>
</svg>
