<svg xmlns="http://www.w3.org/2000/svg" width="26.169" height="19.342" viewBox="0 0 26.169 19.342">
  <g id="cctv" transform="translate(0 -64)">
    <g id="Group_11827" data-name="Group 11827" transform="translate(2.276 68.551)">
      <g id="Group_11826" data-name="Group 11826">
        <path id="Path_23643" data-name="Path 23643" d="M63.715,149.333H43.235a.569.569,0,0,0-.569.569v3.413a10.809,10.809,0,1,0,21.618,0V149.9A.569.569,0,0,0,63.715,149.333Zm-.569,3.982a9.671,9.671,0,1,1-19.342,0v-2.844H63.146Z" transform="translate(-42.666 -149.333)"/>
      </g>
    </g>
    <g id="Group_11829" data-name="Group 11829" transform="translate(7.964 70.827)">
      <g id="Group_11828" data-name="Group 11828" transform="translate(0 0)">
        <path id="Path_23644" data-name="Path 23644" d="M154.453,192a5.12,5.12,0,1,0,5.12,5.12A5.126,5.126,0,0,0,154.453,192Zm0,9.1a3.982,3.982,0,1,1,3.982-3.982A3.987,3.987,0,0,1,154.453,201.1Z" transform="translate(-149.333 -192)"/>
      </g>
    </g>
    <g id="Group_11831" data-name="Group 11831" transform="translate(10.24 73.102)">
      <g id="Group_11830" data-name="Group 11830" transform="translate(0 0)">
        <path id="Path_23645" data-name="Path 23645" d="M194.844,234.667a2.844,2.844,0,1,0,2.844,2.844A2.848,2.848,0,0,0,194.844,234.667Zm0,4.551a1.707,1.707,0,1,1,1.707-1.707A1.709,1.709,0,0,1,194.844,239.218Z" transform="translate(-192 -234.667)"/>
      </g>
    </g>
    <g id="Group_11833" data-name="Group 11833" transform="translate(0 64)">
      <g id="Group_11832" data-name="Group 11832" transform="translate(0 0)">
        <path id="Path_23646" data-name="Path 23646" d="M25.6,64H.569A.569.569,0,0,0,0,64.569v3.413a1.709,1.709,0,0,0,1.707,1.707H24.462a1.709,1.709,0,0,0,1.707-1.707V64.569A.569.569,0,0,0,25.6,64Zm-.569,3.982a.57.57,0,0,1-.569.569H1.707a.57.57,0,0,1-.569-.569V65.138H25.031Z" transform="translate(0 -64)"/>
      </g>
    </g>
    <g id="Group_11835" data-name="Group 11835" transform="translate(19.342 71.964)">
      <g id="Group_11834" data-name="Group 11834" transform="translate(0 0)">
        <circle id="Ellipse_433" data-name="Ellipse 433" cx="0.569" cy="0.569" r="0.569"/>
      </g>
    </g>
  </g>
</svg>
