<svg id="Group_11734" data-name="Group 11734" xmlns="http://www.w3.org/2000/svg" width="24.008" height="24.008" viewBox="0 0 24.008 24.008">
  <g id="Group_11733" data-name="Group 11733">
    <path id="Path_23631" data-name="Path 23631" d="M9.706,180.938A.938.938,0,0,0,8.768,180H5.017a.938.938,0,0,0-.938.938v1.682H0V184.5H4.079v1.6a.938.938,0,0,0,.938.938H8.768a.938.938,0,0,0,.938-.938v-1.6h14.3V182.62H9.706Zm-1.876,4.22H5.955v-3.282H7.831Z" transform="translate(0 -171.56)" fill="#fff"/>
    <path id="Path_23632" data-name="Path 23632" d="M20.209,362.938a.938.938,0,0,0-.938-.938H15.521a.938.938,0,0,0-.938.938v1.641H0v1.876H14.583V368.1a.938.938,0,0,0,.938.938h3.751a.938.938,0,0,0,.938-.938v-1.641h3.8v-1.876h-3.8Zm-1.876,4.22H16.458v-3.282h1.876Z" transform="translate(0 -345.026)" fill="#fff"/>
    <path id="Path_23633" data-name="Path 23633" d="M20.3,2.626V.938A.938.938,0,0,0,19.365,0H15.614a.938.938,0,0,0-.938.938V2.626H0V4.5H14.677V6.1a.938.938,0,0,0,.938.938h3.751A.938.938,0,0,0,20.3,6.1V4.5h3.7V2.626ZM18.428,5.158H16.552V1.876h1.876Z" fill="#fff"/>
  </g>
</svg>
