<svg xmlns="http://www.w3.org/2000/svg" width="24.071" height="24.071" viewBox="0 0 24.071 24.071">
  <path id="high-signal" d="M23.131,24.071a.94.94,0,0,1-.94-.94V.94a.94.94,0,0,1,1.881,0V23.131A.94.94,0,0,1,23.131,24.071Zm-2.774-.94V4.748a.94.94,0,0,0-1.881,0V23.131a.94.94,0,0,0,1.881,0Zm-3.714,0V8.51a.94.94,0,1,0-1.881,0V23.131a.94.94,0,1,0,1.881,0Zm-3.714,0V12.271a.94.94,0,1,0-1.881,0v10.86a.94.94,0,1,0,1.881,0Zm-3.714,0v-7.1a.94.94,0,0,0-1.881,0v7.1a.94.94,0,0,0,1.881,0Zm-3.714,0V19.323a.94.94,0,0,0-1.881,0v3.808a.94.94,0,1,0,1.881,0Zm-3.62,0a.94.94,0,1,0-.94.94A.94.94,0,0,0,1.881,23.131Zm0,0" fill="#fff"/>
</svg>
