<svg xmlns="http://www.w3.org/2000/svg" width="28.792" height="31.929" viewBox="0 0 28.792 31.929">
  <g id="shield" transform="translate(0 0)">
    <g id="Group_10460" data-name="Group 10460" transform="translate(13.167 14.534)">
      <g id="Group_10459" data-name="Group 10459">
        <path id="Path_23249" data-name="Path 23249" d="M240.464,232.255a1.249,1.249,0,0,0-.534,2.378v1.519a.534.534,0,1,0,1.067,0v-1.519a1.249,1.249,0,0,0-.533-2.378Z" transform="translate(-239.214 -232.255)" fill="#fff"/>
      </g>
    </g>
    <g id="Group_10462" data-name="Group 10462">
      <g id="Group_10461" data-name="Group 10461">
        <path id="Path_23250" data-name="Path 23250" d="M87.111,39.416A9.487,9.487,0,0,1,81.978,34.7a1.686,1.686,0,0,0-1.518-.954H67.09a1.686,1.686,0,0,0-1.518.954,9.487,9.487,0,0,1-5.133,4.713,1.672,1.672,0,0,0-1.06,1.565v3.252A22.715,22.715,0,0,0,62.974,56.41a26.139,26.139,0,0,0,9.95,9.039l.067.035a1.685,1.685,0,0,0,1.568,0l.068-.036a26.14,26.14,0,0,0,9.95-9.039,22.716,22.716,0,0,0,3.595-12.177V40.981A1.672,1.672,0,0,0,87.111,39.416ZM87.1,44.232a21.651,21.651,0,0,1-3.428,11.605A25.073,25.073,0,0,1,74.13,64.5l-.068.035a.618.618,0,0,1-.575,0L73.42,64.5a25.072,25.072,0,0,1-9.546-8.667,21.651,21.651,0,0,1-3.428-11.606V40.981a.611.611,0,0,1,.386-.572,10.549,10.549,0,0,0,5.7-5.247.614.614,0,0,1,.554-.345H80.46a.614.614,0,0,1,.554.345,10.55,10.55,0,0,0,5.7,5.247.611.611,0,0,1,.386.572Z" transform="translate(-59.379 -33.749)" fill="#fff"/>
      </g>
    </g>
    <g id="Group_10468" data-name="Group 10468" transform="translate(6.63 3.085)">
      <g id="Group_10467" data-name="Group 10467">
        <path id="Path_23253" data-name="Path 23253" d="M163.8,83.645h-.877V81.1a5.213,5.213,0,0,0-10.426,0v2.547h-.877a1.7,1.7,0,0,0-1.7,1.7V92.98a1.7,1.7,0,0,0,1.7,1.7H163.8a1.7,1.7,0,0,0,1.7-1.7V85.341A1.7,1.7,0,0,0,163.8,83.645ZM153.568,81.1a4.146,4.146,0,0,1,8.292,0v2.547h-8.292ZM164.434,92.98a.631.631,0,0,1-.63.63h-12.18a.63.63,0,0,1-.63-.63V85.341a.631.631,0,0,1,.63-.63H163.8a.63.63,0,0,1,.63.63Z" transform="translate(-149.927 -75.885)" fill="#fff"/>
      </g>
    </g>
  </g>
</svg>
