<svg xmlns="http://www.w3.org/2000/svg" width="249.709" height="281.818" viewBox="0 0 249.709 281.818">
  <g id="Group_12150" data-name="Group 12150" transform="translate(-5132.45 652.029)">
    <g id="Group_12144" data-name="Group 12144" transform="translate(5135.165 -600.59)">
      <path id="Path_23703" data-name="Path 23703" d="M224.323,478.981a340.1,340.1,0,0,1-57.53-4.9,124.243,124.243,0,0,1-17.108-4.6l-.808-.26a29.969,29.969,0,0,1-6.035-2.917c-.96-.556-1.951-1.13-3.106-1.741l-5.608-2.965,30.721-5.585-.354-.667-27.542,4.786-9.542-11.786,29.9-6.121c-.118-.239-.233-.453-.338-.627-.932.125-2.448.422-3.542.636-3.568.7-7.192,1.478-10.7,2.229-4.1.878-8.336,1.788-12.577,2.594a18.1,18.1,0,0,1-9.1-.525c-4.566-1.832-9.74-3.907-13.838-6.624-3.561-2.36-5.413-5.079-5.358-7.865.053-2.718,1.93-5.318,5.426-7.52a73.439,73.439,0,0,1,17-7.683c17.246-5.391,35.98-7.507,50.376-8.749,41.244-3.556,78.8-2.971,114.8,1.789a305.369,305.369,0,0,1,34.626,6.855,63.863,63.863,0,0,1,17.347,7.568c3.543,2.135,5.542,4.851,5.629,7.647s-1.742,5.57-5.152,7.8a78.679,78.679,0,0,1-13.175,6.339c-.725.3-1.45.592-2.168.889-2.365.979-5.371.571-8,.043-3.526-.71-7.078-1.467-10.513-2.2-4.156-.885-8.453-1.8-12.69-2.628-1.047-.2-2.478-.483-3.428-.621-.079.186-.162.407-.246.65l29.826,6.106-9.451,11.813-27.536-4.8-.369.673,29.229,5.245-4.447,2.95c-.632.418-1.2.852-1.746,1.271a13.937,13.937,0,0,1-4.567,2.6c-1.724.529-3.443,1.084-5.165,1.641a121.617,121.617,0,0,1-18.233,4.847,345.82,345.82,0,0,1-54.908,4.407ZM149.848,463.8a14.347,14.347,0,0,0,2.372,1.057l.811.261a116.3,116.3,0,0,0,15.725,4.262,330.886,330.886,0,0,0,108.672.464,112.526,112.526,0,0,0,16.688-4.478c1.68-.543,3.357-1.085,5.038-1.6l-24.772-4.444,5.4-9.845,28.4,4.945,2.553-3.192-27.707-5.671.627-2.127c.991-3.358,1.536-5.208,4.193-6.25,2.622-1.031,5.436-.481,9.694.35,4.329.845,8.673,1.772,12.873,2.667,3.4.728,6.926,1.478,10.39,2.176a16.7,16.7,0,0,0,2.144.33q.89-.368,1.787-.733a72.8,72.8,0,0,0,11.842-5.645c1.993-1.3,3.022-2.78,2.975-4.27s-1.165-2.934-3.233-4.18a55.484,55.484,0,0,0-14.951-6.6,295.121,295.121,0,0,0-33.4-6.622c-35.172-4.648-71.909-5.215-112.307-1.733-13.84,1.2-31.815,3.217-48.1,8.309a64.9,64.9,0,0,0-15.023,6.789c-2.061,1.3-3.12,2.673-3.148,4.088-.029,1.462,1.083,2.983,3.216,4.4,3.458,2.292,8.014,4.12,12.419,5.889a8.091,8.091,0,0,0,3.02-.007c4.116-.783,8.292-1.679,12.329-2.545,3.55-.761,7.221-1.549,10.882-2.267,4.124-.809,6.848-1.341,9.451-.428s3.362,2.628,4.644,5.476a2.023,2.023,0,0,1-.1,1.784l-.446,1.4-26.561,5.436,2.574,3.179,28.507-4.953,5.226,9.845Zm36.032-5.426c-5.468,0-6.38-2.282-8.25-6.963l-1.038-2.6,4.088-.421a423.116,423.116,0,0,1,87.215-.021l3.506.367-.367,2.289c-.445,2.784-.8,4.982-3.359,6.294-2.462,1.261-5.7.988-9.135.7a394.435,394.435,0,0,0-70.01.21c-.987.1-1.865.146-2.65.146Zm.111-5.573c.124.275.241.517.347.712.338-.027.724-.064,1.07-.1a406.173,406.173,0,0,1,72.1-.225c.8.067,2.488.209,3.4.206a4.6,4.6,0,0,0,.19-.576,404.882,404.882,0,0,0-77.107-.018Zm-12.352-7.93-5.416-9.958,4.286-.533a417.382,417.382,0,0,1,103.94-.021l4.287.528-5.353,9.933-3.165-.375a400.1,400.1,0,0,0-95.409.04Zm4.589-6.222.367.673a411.586,411.586,0,0,1,91.8-.033l.35-.651a405.26,405.26,0,0,0-92.517.013Z" transform="translate(-101.87 -405.805)"/>
    </g>
    <g id="Group_12145" data-name="Group 12145" transform="translate(5132.45 -652.032)">
      <path id="Path_23704" data-name="Path 23704" d="M105.21,415.224l-6.232-1.961.134-2.361c.156-2.748.239-5.573.318-8.3.2-6.834.406-13.9,1.766-20.8.836-4.247,4.161-8.645,10.461-13.843,11.51-9.495,26.392-15.734,46.833-19.633,48.846-9.322,96.34-8.553,141.162,2.285,15.16,3.667,27.346,9.253,37.253,17.08,5.634,4.451,12.066,10.8,11.772,20.488-.162,5.336-.122,10.8-.085,16.091.017,2.385.034,4.771.034,7.162v2.686l-2.757.43a4.559,4.559,0,0,1-3.984-.578c-17.175-12.355-37.568-17.453-62.9-21.306-46.514-7.077-91.62-5.4-134.062,4.989-16.9,4.136-28.629,9.163-38.027,16.3Zm120-66.924a346.98,346.98,0,0,0-65.08,6.3c-19.035,3.632-32.778,9.346-43.251,17.985-4.944,4.078-7.725,7.536-8.264,10.279-1.271,6.448-1.47,13.281-1.663,19.889-.028.961-.056,1.934-.088,2.912,9.367-6.009,20.748-10.478,35.993-14.208,43.543-10.662,89.789-12.388,137.443-5.14,20.788,3.164,42.379,7.7,60.783,18.969q0-.491-.007-.985c-.039-5.337-.078-10.856.086-16.3.17-5.616-2.628-10.278-9.355-15.591-9.017-7.123-20.2-12.231-34.2-15.615a307.386,307.386,0,0,0-72.4-8.5Z" transform="translate(-98.978 -341.862)"/>
    </g>
    <g id="Group_12146" data-name="Group 12146" transform="translate(5232.399 -514.947)">
      <path id="Path_23705" data-name="Path 23705" d="M241.288,684.012l-5.349-2.31c-17.462-7.542-28.1-29.42-24.214-49.809,1.946-10.222,6.392-20.29,13.59-30.782l1.582-2.3c3.556-5.172,7.232-10.518,10.558-15.891,6.055-9.777,6.3-19.418.735-29.476-.637-1.152-1.153-2.277-1.7-3.467-.238-.517-.482-1.05-.747-1.6l-4.345-9.095,9.743,2.579c16.046,4.251,27.113,22.069,24.166,38.912-1.581,9.038-5.2,17.654-8.877,25.618a116.07,116.07,0,0,1-9.064,15.326c-1.013,1.528-2.027,3.056-3.013,4.594-9.24,14.422-10.381,28.914-3.49,44.3a37.37,37.37,0,0,1,1.558,4.35,5.742,5.742,0,0,1-.073,3.44h0Zm9.08-125.224c2.575,9.781.912,19.513-4.988,29.039-3.444,5.562-7.185,11-10.8,16.263L233,606.384c-6.546,9.54-10.4,18.2-12.121,27.252a38.96,38.96,0,0,0,8.075,31.269c-3.982-14.931-1.459-29.569,7.55-43.631,1.012-1.58,2.053-3.148,3.1-4.718a107.448,107.448,0,0,0,8.367-14.078c3.413-7.392,6.762-15.333,8.159-23.319,1.238-7.069-1.211-14.722-5.758-20.371Z" transform="translate(-210.926 -539.275)"/>
    </g>
    <g id="Group_12147" data-name="Group 12147" transform="translate(5266.119 -477.784)">
      <path id="Path_23706" data-name="Path 23706" d="M266.343,677.742l-9.3-4.807A31.738,31.738,0,0,1,240.9,636.879c1.572-5.9,4.392-11.307,7.119-16.528q.739-1.417,1.466-2.827a34.962,34.962,0,0,1,4.518-6.38c.617-.742,1.234-1.481,1.813-2.242,9.393-12.358,9.842-15.087,4.8-29.189l-3.055-8.545,8.724,2.5c10.88,3.1,18.3,15.046,16.54,26.616-1.1,7.214-4.122,14.036-6.938,19.758a82.276,82.276,0,0,1-7.286,11.476c-.985,1.379-1.973,2.753-2.917,4.15-5.656,8.354-6.747,17.164-3.337,26.927a34.707,34.707,0,0,1,.955,3.442c.121.5.247,1.03.392,1.584Zm6.772-85.33c.143,7.138-2.9,12.951-9.876,22.13-.659.866-1.36,1.714-2.062,2.562a27.5,27.5,0,0,0-3.393,4.673q-.739,1.44-1.5,2.887c-2.606,4.991-5.068,9.705-6.372,14.611a21.9,21.9,0,0,0,1.229,14.574,37.46,37.46,0,0,1,6.826-23.415c.991-1.464,2.024-2.9,3.056-4.347a74.309,74.309,0,0,0,6.5-10.165c2.5-5.084,5.181-11.085,6.087-17.044a14.459,14.459,0,0,0-.495-6.466Z" transform="translate(-239.875 -571.168)"/>
    </g>
    <g id="Group_12148" data-name="Group 12148" transform="translate(5205.289 -504.089)">
      <path id="Path_23707" data-name="Path 23707" d="M209.1,655.432l-3.927-1.942c-13.727-6.791-20.427-22.337-16.294-37.8,1.413-5.29,3.877-10.131,6.259-14.811q.631-1.239,1.251-2.472a37.118,37.118,0,0,1,4.019-6.023c.563-.733,1.126-1.465,1.657-2.214,9.242-13.079,9.5-15.093,3.97-30.778L202.224,548.6l10.263,5.064c13.667,6.742,19.557,19.131,15.756,33.141-1.541,5.687-4.261,10.876-6.89,15.9l-.478.912c-1.615,3.092-3.5,5.975-5.327,8.761-.95,1.448-1.9,2.9-2.8,4.372-4.89,7.956-5.729,16.139-2.567,25.019.574,1.615,1.053,3.225,1.517,4.784l.277.932a4.835,4.835,0,0,1-.8,4.338Zm9.866-82.791c.464,7.453-2.375,13.119-9.29,22.9-.6.852-1.24,1.683-1.879,2.515a29.77,29.77,0,0,0-3.072,4.511c-.422.845-.851,1.687-1.28,2.531-2.263,4.448-4.4,8.649-5.562,12.989a24.433,24.433,0,0,0,1.235,16.522A36.718,36.718,0,0,1,204.8,611.86c.964-1.568,1.972-3.108,2.946-4.6,1.782-2.72,3.463-5.289,4.866-7.973l.481-.92c2.4-4.575,4.876-9.31,6.152-14.011A18.643,18.643,0,0,0,218.961,572.641Z" transform="translate(-187.663 -548.594)"/>
    </g>
  </g>
</svg>
