<svg xmlns="http://www.w3.org/2000/svg" width="20.028" height="28.152" viewBox="0 0 20.028 28.152">
  <g id="Group_12075" data-name="Group 12075">
    <g id="Group_12074" data-name="Group 12074" transform="translate(0 0)">
      <path id="Path_23678" data-name="Path 23678" d="M53.815,3.1c-.642-.956-1.209-1.836-1.738-2.639a1.157,1.157,0,0,0-.3-.306.978.978,0,0,0-1.36.306c-.491.8-1.058,1.644-1.738,2.639-2.985,4.436-7.444,11.128-7.444,14.953a10.149,10.149,0,0,0,2.947,7.151,10.035,10.035,0,0,0,7.066,2.945,9.91,9.91,0,0,0,7.066-2.983,10.149,10.149,0,0,0,2.947-7.151C61.26,14.194,56.8,7.54,53.815,3.1Zm3.136,20.689a7.944,7.944,0,0,1-5.706,2.371A8.048,8.048,0,0,1,43.2,18.018c0-3.212,4.27-9.6,7.1-13.844.34-.5.642-.994.945-1.415.3.421.6.918.945,1.415,2.834,4.283,7.1,10.631,7.1,13.844A8.3,8.3,0,0,1,56.952,23.793Z" transform="translate(-41.232 0)" fill="#fff"/>
    </g>
  </g>
  <g id="Group_12077" data-name="Group 12077" transform="translate(12.492 19.118)">
    <g id="Group_12076" data-name="Group 12076" transform="translate(0)">
      <path id="Path_23679" data-name="Path 23679" d="M170.51,181.242a.818.818,0,0,0-.862.766,4.109,4.109,0,0,1-.606,1.947,3.879,3.879,0,0,1-1.468,1.4.843.843,0,0,0,.83,1.468,5.531,5.531,0,0,0,2.043-1.979,5.431,5.431,0,0,0,.83-2.745A.818.818,0,0,0,170.51,181.242Z" transform="translate(-167.152 -181.24)" fill="#fff"/>
    </g>
  </g>
</svg>
