<svg xmlns="http://www.w3.org/2000/svg" xmlns:xlink="http://www.w3.org/1999/xlink" width="82" height="82" viewBox="0 0 82 82">
  <defs>
    <filter id="Path_23198" x="0" y="0" width="82" height="82" filterUnits="userSpaceOnUse">
      <feOffset dy="3" input="SourceAlpha"/>
      <feGaussianBlur stdDeviation="3" result="blur"/>
      <feFlood flood-opacity="0.161"/>
      <feComposite operator="in" in2="blur"/>
      <feComposite in="SourceGraphic"/>
    </filter>
  </defs>
  <g id="Group_3115" data-name="Group 3115" transform="translate(8.936 5.683)">
    <g transform="matrix(1, 0, 0, 1, -8.94, -5.68)" filter="url(#Path_23198)">
      <path id="Path_23198-2" data-name="Path 23198" d="M32,0A32,32,0,1,1,0,32,32,32,0,0,1,32,0Z" transform="translate(9 6)" fill="#36b556"/>
    </g>
    <path id="Icon_ionic-ios-add" data-name="Icon ionic-ios-add" d="M35.956,21.564H25.148V10.757a1.792,1.792,0,1,0-3.584,0V21.564H10.757a1.792,1.792,0,0,0,0,3.584H21.564V35.956a1.792,1.792,0,0,0,3.584,0V25.148H35.956a1.792,1.792,0,0,0,0-3.584Z" transform="translate(8.707 8.961)" fill="#fff"/>
  </g>
</svg>
