<svg width="148" height="143" xmlns="http://www.w3.org/2000/svg" xmlns:xlink="http://www.w3.org/1999/xlink" overflow="hidden"><defs><clipPath id="clip0"><rect x="92" y="486" width="148" height="143"/></clipPath></defs><g clip-path="url(#clip0)" transform="translate(-92 -486)"><path d="M73.5429 18.629C70.4206 18.629 67.704 20.2867 66.276 23.0633L12.82 127.006C11.5066 129.56 11.6155 132.548 13.1114 134.999 14.6073 137.451 17.215 138.914 20.0868 138.914L126.999 138.914C129.871 138.914 132.478 137.451 133.974 134.999 135.47 132.548 135.579 129.56 134.266 127.006L80.8097 23.0633C79.3818 20.2867 76.6652 18.629 73.5429 18.629M73.5429 14.5433C77.8529 14.5433 82.1625 16.7605 84.4431 21.1947L137.899 125.137C142.094 133.294 136.172 143 126.999 143L20.0868 143C10.9141 143 4.99152 133.294 9.18665 125.137L62.6426 21.1947C64.9232 16.7605 69.2328 14.5433 73.5429 14.5433Z" fill="#F11B2A" transform="matrix(1.00622 0 0 1 92 486)"/><path d="M101.068 109.027 3.85691 109.027C1.60044 109.024-0.226247 107.192-0.223103 104.936-0.222252 104.325-0.0845874 103.723 0.179771 103.172L48.7793 1.79771C49.7628-0.233116 52.2064-1.08208 54.2374-0.098507 55.0648 0.302226 55.7328 0.970304 56.1336 1.79771L104.754 103.172C105.731 105.206 104.874 107.648 102.84 108.624 102.29 108.889 101.687 109.026 101.076 109.027ZM52.5014 80.3987C50.0202 80.328 47.9516 82.2822 47.8809 84.763 47.8809 84.7696 47.8805 84.7761 47.8805 84.7827 47.9193 87.2443 49.9466 89.2079 52.4079 89.1691 52.4393 89.1687 52.4704 89.1679 52.5014 89.1666 54.9095 89.2639 56.9402 87.3902 57.037 84.9825 57.0398 84.9159 57.0411 84.8493 57.0407 84.7827 57.0235 82.3435 55.0321 80.3799 52.5929 80.3971 52.5627 80.3975 52.5321 80.3979 52.5014 80.3987ZM49.478 35.4313 49.478 49.2778 50.6506 75.4836 54.434 75.4836 55.5249 49.2778 55.5249 35.4313 49.478 35.4313Z" fill="#F11B2A" transform="matrix(1.00622 0 0 1 113.789 510.882)"/></g></svg>