<svg xmlns="http://www.w3.org/2000/svg" width="83.778" height="73.306" viewBox="0 0 83.778 73.306">
  <path id="Icon_metro-image" data-name="Icon metro-image" d="M81.1,9.092l.009.009V71.916l-.009.009H7.816l-.009-.009V9.1l.009-.009Zm.009-5.236H7.807A5.251,5.251,0,0,0,2.571,9.092V71.925a5.251,5.251,0,0,0,5.236,5.236H81.112a5.251,5.251,0,0,0,5.236-5.236V9.092A5.251,5.251,0,0,0,81.112,3.856ZM70.64,22.182a7.854,7.854,0,1,1-7.854-7.854,7.854,7.854,0,0,1,7.854,7.854Zm5.236,44.507H13.043V56.217L31.369,24.8,52.314,50.981H57.55L75.876,35.273Z" transform="translate(-2.571 -3.856)" fill="#12133a"/>
</svg>
