<svg xmlns="http://www.w3.org/2000/svg" width="26.829" height="22.374" viewBox="0 0 26.829 22.374">
  <g id="Group_10259" data-name="Group 10259" transform="translate(1.813 1.5)">
    <path id="Path_23217" data-name="Path 23217" d="M9.434-16.47s.977-4.007,6.716-4.007c2.525,0,6.385,4.074,9.516,5.031C29-14.429,32.392-16.47,32.392-16.47" transform="translate(-9.434 20.478)" fill="none" stroke="#fff" stroke-linecap="round" stroke-linejoin="round" stroke-miterlimit="10" stroke-width="3"/>
    <path id="Path_23218" data-name="Path 23218" d="M9.434-16.47s.977-4.007,6.716-4.007c2.525,0,6.385,4.074,9.516,5.031C29-14.429,32.392-16.47,32.392-16.47" transform="translate(-9.434 27.478)" fill="none" stroke="#fff" stroke-linecap="round" stroke-linejoin="round" stroke-miterlimit="10" stroke-width="3"/>
    <path id="Path_23219" data-name="Path 23219" d="M9.434-16.47s.977-4.007,6.716-4.007c2.525,0,6.385,4.074,9.516,5.031C29-14.429,32.392-16.47,32.392-16.47" transform="translate(-9.434 34.478)" fill="none" stroke="#fff" stroke-linecap="round" stroke-linejoin="round" stroke-miterlimit="10" stroke-width="3"/>
  </g>
</svg>
