<svg xmlns="http://www.w3.org/2000/svg" width="26.829" height="22.374" viewBox="0 0 26.829 22.374">
  <g id="Group_10258" data-name="Group 10258" transform="translate(-239.187 -433.749)">
    <path id="Path_23217" data-name="Path 23217" d="M9.434-16.47s.977-4.007,6.716-4.007c2.525,0,6.385,4.074,9.516,5.031C29-14.429,32.392-16.47,32.392-16.47" transform="translate(231.566 455.726)" fill="none" stroke="#000" stroke-linecap="round" stroke-linejoin="round" stroke-miterlimit="10" stroke-width="3"/>
    <path id="Path_23218" data-name="Path 23218" d="M9.434-16.47s.977-4.007,6.716-4.007c2.525,0,6.385,4.074,9.516,5.031C29-14.429,32.392-16.47,32.392-16.47" transform="translate(231.566 462.726)" fill="none" stroke="#000" stroke-linecap="round" stroke-linejoin="round" stroke-miterlimit="10" stroke-width="3"/>
    <path id="Path_23219" data-name="Path 23219" d="M9.434-16.47s.977-4.007,6.716-4.007c2.525,0,6.385,4.074,9.516,5.031C29-14.429,32.392-16.47,32.392-16.47" transform="translate(231.566 469.726)" fill="none" stroke="#000" stroke-linecap="round" stroke-linejoin="round" stroke-miterlimit="10" stroke-width="3"/>
  </g>
</svg>
