<svg id="cold" xmlns="http://www.w3.org/2000/svg" width="14.482" height="38.62" viewBox="0 0 14.482 38.62">
  <path id="Path_23290" data-name="Path 23290" d="M60.224,317.08v-3.873a1.207,1.207,0,1,0-2.414,0v3.873a3.017,3.017,0,1,0,2.414,0Z" transform="translate(-51.776 -288.466)" fill="#fff"/>
  <path id="Path_23291" data-name="Path 23291" d="M12.069,25.98V4.827a4.827,4.827,0,0,0-9.655,0V25.98A7.176,7.176,0,0,0,0,31.378a7.241,7.241,0,0,0,14.482,0A7.176,7.176,0,0,0,12.069,25.98ZM7.241,36.206a4.827,4.827,0,0,1-2.9-8.69,1.207,1.207,0,0,0,.482-.965V4.827a2.414,2.414,0,0,1,4.827,0V26.551a1.207,1.207,0,0,0,.482.965,4.828,4.828,0,0,1-2.9,8.69Z" fill="#fff"/>
</svg>
