<svg id="Group_11714" data-name="Group 11714" xmlns="http://www.w3.org/2000/svg" width="119.5" height="119.5" viewBox="0 0 119.5 119.5">
  <rect id="Rectangle_18563-2" data-name="Rectangle 18563-2" width="119.5" height="119.5" fill="#4244d4"/>
  <g id="export">
    <g id="Group_11709" data-name="Group 11709">
      <g id="Group_11708" data-name="Group 11708">
        <path id="Path_23672" data-name="Path 23672" d="M375.25,404.34H357.86a2.41,2.41,0,1,0,0,4.81h15v15a2.41,2.41,0,0,0,4.81,0v-17.4a2.4,2.4,0,0,0-2.38-2.41Z" transform="translate(-286 -376.5)" fill="#fff"/>
      </g>
    </g>
    <g id="Group_11711" data-name="Group 11711">
      <g id="Group_11710" data-name="Group 11710">
        <path id="Path_23673" data-name="Path 23673" d="M377,405.05a2.39,2.39,0,0,0-3.38,0h0l-34.31,34.31a2.4,2.4,0,1,0,3.4,3.4L377,408.45a2.39,2.39,0,0,0,0-3.38Z" transform="translate(-286 -376.5)" fill="#fff"/>
      </g>
    </g>
    <g id="Group_11713" data-name="Group 11713">
      <g id="Group_11712" data-name="Group 11712">
        <path id="Path_23674" data-name="Path 23674" d="M367.07,434.25a2.38,2.38,0,0,0-2.4,2.37v26.72h-46v-46h26.7a2.41,2.41,0,0,0,0-4.81h-29.1a2.39,2.39,0,0,0-2.41,2.37v50.85a2.39,2.39,0,0,0,2.39,2.39h50.84a2.39,2.39,0,0,0,2.39-2.39v-29.1a2.38,2.38,0,0,0-2.37-2.4Z" transform="translate(-286 -376.5)" fill="#fff"/>
      </g>
    </g>
  </g>
</svg>
