<svg xmlns="http://www.w3.org/2000/svg" width="32.017" height="41.643" viewBox="0 0 32.017 41.643">
  <path id="fire" d="M85.251,13.222l-1.3-1.058-.607,1.567c-.012.03-1.178,2.979-2.969,2.442a1.268,1.268,0,0,1-.837-.722c-.445-.953-.256-2.677.482-4.393,1.02-2.373.573-4.86-1.291-7.191A13.1,13.1,0,0,0,75.77,1.191L73.861,0,73.9,2.25c0,.04.042,4.038-2.918,5.5a6.929,6.929,0,0,0-3.656,4.183,6.419,6.419,0,0,0,.586,5.049,1.948,1.948,0,0,1,.325,1.574,1.9,1.9,0,0,1-1.077.99c-2.116.85-3.5-1.988-3.558-2.1l-.965-2.06L61.457,17.33A16.008,16.008,0,0,0,74.951,41.641l.192,0h0A16.007,16.007,0,0,0,85.251,13.222ZM70.137,34.2V34.18a9.209,9.209,0,0,1,.551-3.109l3.009.879.03-1.6A5.927,5.927,0,0,1,76.256,25.6a11.011,11.011,0,0,0,1.332,3.321c.694,1.132,1.351,2.092,1.957,2.96a4.118,4.118,0,0,1,.606,2.313V34.2a5.005,5.005,0,0,1-5.008,5h0A5.013,5.013,0,0,1,70.137,34.2Zm11.726,3.222a7.416,7.416,0,0,0,.729-3.218,6.494,6.494,0,0,0-1.045-3.72c-.676-.968-1.254-1.821-1.877-2.838a9.518,9.518,0,0,1-1.277-4.091l-.161-1.581-1.486.563a9.2,9.2,0,0,0-2.688,1.72,8.229,8.229,0,0,0-2.6,4.5l-2.182-.638-.431.983A12.413,12.413,0,0,0,67.7,34.2a7.4,7.4,0,0,0,.736,3.218,13.57,13.57,0,0,1-5.778-17.088c.108.12.224.24.346.358a4.566,4.566,0,0,0,5.074,1.126,4.212,4.212,0,0,0,2.476-2.458,4.234,4.234,0,0,0-.519-3.593,3.916,3.916,0,0,1-.363-3.122,4.516,4.516,0,0,1,2.4-2.7,7.771,7.771,0,0,0,3.988-5.392,9.494,9.494,0,0,1,.8.885,4.4,4.4,0,0,1,.919,4.657c-1.031,2.4-1.2,4.787-.451,6.39a3.7,3.7,0,0,0,2.348,2.028,4.239,4.239,0,0,0,4.614-1.648,7.946,7.946,0,0,0,.54-.734,13.563,13.563,0,0,1-2.96,21.288Z" transform="translate(-59.135 0)" fill="#fff"/>
</svg>
