<svg xmlns="http://www.w3.org/2000/svg" width="20.538" height="26.713" viewBox="0 0 20.538 26.713">
  <path id="fire" d="M75.887,8.481,75.051,7.8l-.389,1c-.007.019-.756,1.911-1.9,1.566a.814.814,0,0,1-.537-.463,3.875,3.875,0,0,1,.309-2.818A4.344,4.344,0,0,0,71.7,2.48,8.4,8.4,0,0,0,69.806.764L68.581,0l.027,1.444c0,.026.027,2.59-1.872,3.531a4.445,4.445,0,0,0-2.345,2.683,4.118,4.118,0,0,0,.376,3.239,1.249,1.249,0,0,1,.209,1.01,1.218,1.218,0,0,1-.691.635c-1.358.545-2.246-1.275-2.282-1.35L61.383,9.87l-.759,1.247a10.269,10.269,0,0,0,8.656,15.595l.123,0h0A10.268,10.268,0,0,0,75.887,8.481Zm-9.7,13.454v-.01a5.907,5.907,0,0,1,.354-1.994l1.93.564.019-1.024a3.8,3.8,0,0,1,1.622-3.052,7.063,7.063,0,0,0,.854,2.131c.445.726.867,1.342,1.256,1.9a2.642,2.642,0,0,1,.389,1.484v0a3.211,3.211,0,0,1-3.212,3.21h0a3.215,3.215,0,0,1-3.211-3.211ZM73.714,24a4.757,4.757,0,0,0,.468-2.064,4.166,4.166,0,0,0-.671-2.386c-.434-.621-.8-1.168-1.2-1.82a6.105,6.105,0,0,1-.819-2.624l-.1-1.014-.953.361a5.9,5.9,0,0,0-1.725,1.1,5.278,5.278,0,0,0-1.669,2.886l-1.4-.409-.276.63a7.963,7.963,0,0,0-.736,3.275A4.748,4.748,0,0,0,65.1,24a8.7,8.7,0,0,1-3.706-10.961c.07.077.144.154.222.229a2.929,2.929,0,0,0,3.255.722,2.7,2.7,0,0,0,1.588-1.577,2.716,2.716,0,0,0-.333-2.3,2.512,2.512,0,0,1-.233-2,2.9,2.9,0,0,1,1.541-1.733,4.985,4.985,0,0,0,2.558-3.459,6.089,6.089,0,0,1,.511.568,2.821,2.821,0,0,1,.59,2.987,5.259,5.259,0,0,0-.289,4.1,2.372,2.372,0,0,0,1.506,1.3,2.719,2.719,0,0,0,2.96-1.057,5.1,5.1,0,0,0,.346-.471A8.7,8.7,0,0,1,73.714,24Z" transform="translate(-59.135)"/>
</svg>
