<svg xmlns="http://www.w3.org/2000/svg" width="18.445" height="28.991" viewBox="0 0 18.445 28.991">
  <path id="Path_23677" data-name="Path 23677" d="M-760.333,346.669a11.143,11.143,0,0,1-2.954,7.681,18.454,18.454,0,0,1-6.028,4.295.491.491,0,0,1-.367.03,14.577,14.577,0,0,1-7.409-5.931,12.007,12.007,0,0,1-1.048-10.1,24.946,24.946,0,0,1,3.752-7.346,47.21,47.21,0,0,1,4.609-5.509.332.332,0,0,1,.369-.039,32.52,32.52,0,0,1,7.636,10.531A15.761,15.761,0,0,1-760.333,346.669Zm-9.254-14.084c-1.219,1.565-2.449,3.052-3.591,4.634a20.388,20.388,0,0,0-3.122,6.134,9.379,9.379,0,0,0,.885,8.168,12.828,12.828,0,0,0,5.666,4.633.451.451,0,0,0,.362-.029,15.815,15.815,0,0,0,4.753-3.478,8.8,8.8,0,0,0,2.219-7.726,17.072,17.072,0,0,0-2.085-5.588A33.855,33.855,0,0,0-769.587,332.585Z" transform="translate(778.777 -329.708)" fill="#fff"/>
</svg>
