<svg xmlns="http://www.w3.org/2000/svg" width="30.64" height="29.579" viewBox="0 0 30.64 29.579">
  <g id="Group_12135" data-name="Group 12135" transform="translate(0 0)">
    <path id="Exclusion_2" data-name="Exclusion 2" d="M18.637,12.867a.691.691,0,0,1-.492-.2l-1.684-1.687-.646-.644A3.485,3.485,0,0,1,10.432,7.87h.352a3.138,3.138,0,0,1,4.96-2.982v.45A2.79,2.79,0,1,1,11.137,7.87h.354a2.442,2.442,0,0,1,4.253-2.036v.613a2.1,2.1,0,0,0-1.852-1.116.173.173,0,0,0,0,.347A1.757,1.757,0,0,1,15.522,6.8a.177.177,0,0,0,.165.11.146.146,0,0,0,.058-.01v.362a.174.174,0,0,0,0,.321v.284H11.491a2.442,2.442,0,1,0,4.253-2.036v-.5a2.791,2.791,0,0,0-4.607,2.531h-.353a3.154,3.154,0,0,0,3.108,2.7,3.119,3.119,0,0,0,1.841-.6,3.183,3.183,0,0,0,.7-.7,3.111,3.111,0,0,0,.6-1.841,3.161,3.161,0,0,0-1.288-2.537V4.469a3.489,3.489,0,0,0-5.312,3.4H0V0H15.744V4.469A3.485,3.485,0,0,1,16.8,9.349l2.33,2.326a.7.7,0,0,1-.494,1.192Zm-1.3-2.495a4.4,4.4,0,0,1-.492.494l1.549,1.55a.347.347,0,0,0,.492,0,.35.35,0,0,0,.1-.247.346.346,0,0,0-.1-.247l-1.549-1.55Zm-.742-.741a3.658,3.658,0,0,1-.492.494l.494.5a4.5,4.5,0,0,0,.492-.5l-.494-.494ZM3.137,5.675a.875.875,0,0,0,1.7-.291.925.925,0,0,0-.063-.324l1.1-.964a.846.846,0,0,0,.426.119.873.873,0,0,0,.486-.148L7.8,4.83a.948.948,0,0,0-.041.26.876.876,0,1,0,1.753,0,.79.79,0,0,0-.063-.324l1.1-.962a.84.84,0,0,0,.429.115.877.877,0,1,0-.879-.875.907.907,0,0,0,.063.321l-1.1.964a.821.821,0,0,0-.426-.115.865.865,0,0,0-.486.145L7.134,3.6a.859.859,0,0,0,.044-.26.878.878,0,0,0-1.755,0,.9.9,0,0,0,.063.324l-1.1.961A.9.9,0,0,0,3.961,4.5a.875.875,0,0,0-.824.585H.744v.585ZM3.5.873V2.624H5.247V.873ZM.876.873V2.624H2.624V.873ZM15.813,7.6a.181.181,0,0,1-.069-.013V7.264a.171.171,0,0,1,.069-.014.174.174,0,0,1,.173.175A.172.172,0,0,1,15.813,7.6Zm-.067-.7h0V6.448a2.173,2.173,0,0,1,.1.228.175.175,0,0,1-.1.225ZM3.961,5.675a.293.293,0,1,1,.291-.291A.293.293,0,0,1,3.961,5.675ZM8.64,5.384a.292.292,0,1,1,0-.584.288.288,0,0,1,.291.29A.292.292,0,0,1,8.64,5.384ZM6.3,3.629a.293.293,0,1,1,.294-.294A.293.293,0,0,1,6.3,3.629Zm4.681-.294a.293.293,0,1,1,.291-.291A.293.293,0,0,1,10.981,3.336Z" transform="translate(7.376 16.711)" fill="#fff"/>
    <rect id="Rectangle_18591" data-name="Rectangle 18591" width="15.743" height="2.624" transform="translate(7.376 13.213)" fill="#fff"/>
    <rect id="Rectangle_18594" data-name="Rectangle 18594" width="14.752" height="2.459" transform="translate(0 0)" fill="#fff"/>
    <rect id="Rectangle_18595" data-name="Rectangle 18595" width="14.752" height="7.376" transform="translate(0 3.279)" fill="#fff"/>
    <rect id="Rectangle_18596" data-name="Rectangle 18596" width="14.752" height="2.459" transform="translate(15.887 0)" fill="#fff"/>
    <rect id="Rectangle_18597" data-name="Rectangle 18597" width="14.752" height="7.376" transform="translate(15.887 3.279)" fill="#fff"/>
  </g>
</svg>
