<svg xmlns="http://www.w3.org/2000/svg" width="16.378" height="15.843" viewBox="0 0 16.378 15.843">
  <path id="Icon_awesome-search" data-name="Icon awesome-search" d="M16.155,13.7l-3.189-3.085a.781.781,0,0,0-.544-.217H11.9a6.272,6.272,0,0,0,1.408-3.96A6.547,6.547,0,0,0,6.654,0,6.547,6.547,0,0,0,0,6.436a6.547,6.547,0,0,0,6.654,6.436,6.766,6.766,0,0,0,4.095-1.361v.5a.73.73,0,0,0,.224.526l3.189,3.085a.783.783,0,0,0,1.084,0l.905-.876A.729.729,0,0,0,16.155,13.7Zm-9.5-3.3a4.027,4.027,0,0,1-4.095-3.96,4.027,4.027,0,0,1,4.095-3.96,4.027,4.027,0,0,1,4.095,3.96A4.027,4.027,0,0,1,6.654,10.4Z" fill="#fff"/>
</svg>
