<svg xmlns="http://www.w3.org/2000/svg" width="26.493" height="26.496" viewBox="0 0 26.493 26.496">
  <g id="Group_12128" data-name="Group 12128" transform="translate(0 0.25)">
    <rect id="Rectangle_18599" data-name="Rectangle 18599" width="4" height="3" transform="translate(0 0)" fill="#fff"/>
    <rect id="Rectangle_18599-2" data-name="Rectangle 18599" width="4" height="3" transform="translate(5.638 0)" fill="#fff"/>
    <rect id="Rectangle_18599-3" data-name="Rectangle 18599" width="4" height="3" transform="translate(11.638 0)" fill="#fff"/>
    <rect id="Rectangle_18599-4" data-name="Rectangle 18599" width="4" height="3" transform="translate(17.638 0)" fill="none" stroke="#fff" stroke-width="0.5"/>
    <rect id="Rectangle_18599-5" data-name="Rectangle 18599" width="4" height="3" transform="translate(0 6)" fill="#fff"/>
    <g id="Rectangle_18599-6" data-name="Rectangle 18599" transform="translate(6 6)" fill="none" stroke="#fff" stroke-width="0.5">
      <rect width="4" height="3" stroke="none"/>
      <rect x="0.25" y="0.25" width="3.5" height="2.5" fill="none"/>
    </g>
    <rect id="Rectangle_18599-7" data-name="Rectangle 18599" width="4" height="3" transform="translate(12 6)" fill="#fff"/>
    <rect id="Rectangle_18599-8" data-name="Rectangle 18599" width="4" height="3" transform="translate(18 6)" fill="#fff"/>
    <rect id="Rectangle_18599-9" data-name="Rectangle 18599" width="4" height="3" transform="translate(0 12)" fill="#fff"/>
    <rect id="Rectangle_18599-10" data-name="Rectangle 18599" width="4" height="3" transform="translate(6 12)" fill="#fff"/>
    <path id="Exclusion_3" data-name="Exclusion 3" d="M13.44,14.247a1.047,1.047,0,0,1-.745-.309l-2.545-2.545-.973-.973A5.265,5.265,0,0,1,1.924,9H2.58A4.752,4.752,0,0,1,1.528,6.025V6H1a5.232,5.232,0,0,1,.956-3H0V0H4V1.269A5.214,5.214,0,0,1,6,.761v.528c.1-.006.188-.008.271-.008A4.734,4.734,0,0,1,9.922,3V3H9.206A4.21,4.21,0,0,1,10,7.99v.962c.037-.047.074-.1.111-.147a4.7,4.7,0,0,0,.9-2.781A4.746,4.746,0,0,0,9.923,3H10V2.3a5.262,5.262,0,0,1,.666,6.626l3.518,3.518a1.054,1.054,0,0,1-.745,1.8Zm-1.967-3.767a7.123,7.123,0,0,1-.745.745l2.34,2.34a.527.527,0,0,0,.745-.745ZM10.351,9.359a5.317,5.317,0,0,1-.745.745l.747.747a6.22,6.22,0,0,0,.745-.745l-.747-.747ZM2.58,9A4.741,4.741,0,0,0,9.962,9H9.255A4.235,4.235,0,0,0,10,7.99h0L10,6H9.96A3.7,3.7,0,0,0,8.382,3h.825A4.193,4.193,0,0,0,6.271,1.808c-.09,0-.181,0-.271.009V1.289a4.684,4.684,0,0,0-2,.572V1.269A5.309,5.309,0,0,0,1.957,3H2.62A4.747,4.747,0,0,0,1.528,6h.526v.023A4.188,4.188,0,0,0,3.286,9l0,0H2.58Zm3.691,1.24A4.187,4.187,0,0,1,3.288,9H4V8.93H4a3.67,3.67,0,0,1-1.417-2.9V6H2.055A4.184,4.184,0,0,1,3.336,3H2.62A4.752,4.752,0,0,1,4,1.861v.612a4.207,4.207,0,0,1,2-.657v.529c.1-.007.186-.01.271-.01A3.662,3.662,0,0,1,8.382,3H7.2a3.157,3.157,0,0,0-.925-.138A.264.264,0,0,0,6.039,3H6V2.345A3.706,3.706,0,0,0,2.582,6H4V8.93A3.681,3.681,0,0,0,8.448,9H6V6H8.908c0,.007,0,.014,0,.024a.264.264,0,1,0,.527,0c0-.008,0-.016,0-.024H9.96v.023A3.706,3.706,0,0,1,8.449,9h.806A4.187,4.187,0,0,1,6.271,10.241ZM3.336,3H4V2.473A4.253,4.253,0,0,0,3.336,3ZM1.924,9H0V6H1v.023A5.236,5.236,0,0,0,1.923,9ZM9.433,6H8.908a.262.262,0,0,1,.263-.239A.266.266,0,0,1,9.433,6Zm-.454-.749a.266.266,0,0,1-.247-.169A2.652,2.652,0,0,0,6.271,3.39.264.264,0,0,1,6.039,3H7.2A3.173,3.173,0,0,1,9.224,4.894a.264.264,0,0,1-.151.34A.272.272,0,0,1,8.978,5.252ZM10,2.3l0,0A5.234,5.234,0,0,0,6.271.754c-.09,0-.181,0-.271.007V0h4V2.3Z" transform="translate(12 12)" fill="#fff"/>
    <rect id="Rectangle_18599-11" data-name="Rectangle 18599" width="4" height="3" transform="translate(0 18)" fill="#fff"/>
    <rect id="Rectangle_18599-12" data-name="Rectangle 18599" width="4" height="3" transform="translate(6 18)" fill="none" stroke="#fff" stroke-width="0.5"/>
    <rect id="Rectangle_18600" data-name="Rectangle 18600" width="2" height="2" rx="1" transform="translate(18.638 0.5)" fill="#fff" stroke="#fff" stroke-width="0.5"/>
  </g>
</svg>
