<svg xmlns="http://www.w3.org/2000/svg" xmlns:xlink="http://www.w3.org/1999/xlink" width="133" height="128" viewBox="0 0 133 128">
  <defs>
    <clipPath id="clip-path">
      <rect id="Rectangle_18563" data-name="Rectangle 18563" width="133" height="128" transform="translate(423 501)" fill="#fff"/>
    </clipPath>
  </defs>
  <g id="not_connected_white" transform="translate(-423 -501)" clip-path="url(#clip-path)">
    <path id="Path_23674" data-name="Path 23674" d="M452.457,1.06a3.635,3.635,0,0,0-5.129,0l-23.88,23.9L410.56,12.083a6.442,6.442,0,0,0-9.1-.189l-.1.093-12.816,12.8a3.618,3.618,0,0,0,0,5.122h0l35.042,35a3.629,3.629,0,0,0,5.128,0h0l12.815-12.8a6.424,6.424,0,0,0,0-9.092h0L428.577,30.08l23.88-23.894A3.623,3.623,0,0,0,452.457,1.06ZM422.216,43.73a3.631,3.631,0,0,1-5.128,0L409.75,36.4a3.624,3.624,0,0,1,5.128-5.123l7.338,7.33a3.618,3.618,0,0,1,0,5.12Z" transform="translate(93.256 501.151)" fill="#fff"/>
    <path id="Path_23675" data-name="Path 23675" d="M265.586,302.888a3.81,3.81,0,0,0-5.385,0h0l-5.694,5.69-18.341-18.322,5.694-5.69a3.808,3.808,0,1,0-5.388-5.382l-5.694,5.691-5.84-5.834a2.543,2.543,0,0,0-3.589,0l-3.894,3.89a2.535,2.535,0,0,0,0,3.586.042.042,0,0,0,.012.011c.984.973-.133-.139,7.11,7.095,36.015,35.977,32.607,32.574,33.67,33.639a2.541,2.541,0,0,0,3.593,0h0l3.905-3.89a2.537,2.537,0,0,0,0-3.588l-5.84-5.834,5.694-5.69A3.8,3.8,0,0,0,265.586,302.888Z" transform="translate(238.596 264.518)" fill="#fff"/>
    <path id="Path_23676" data-name="Path 23676" d="M10.668,640.432a2.414,2.414,0,0,0,0,3.4l1.46,1.468L1.116,656.293A3.807,3.807,0,1,0,6.4,661.774c.034-.032.067-.066.1-.1l11.007-11,1.46,1.458a2.419,2.419,0,0,0,3.407.01l6.89-6.806L17.472,633.553Z" transform="translate(423 -37.986)" fill="#fff"/>
    <path id="Path_23677" data-name="Path 23677" d="M131.475,404.574a3.617,3.617,0,0,0-1.039,2.957l1.655,15.03,15.3,15.278,14.751,1.621a3.626,3.626,0,0,0,2.92-1l10.927-10.587L142.069,393.99Z" transform="translate(312.021 165.877)" fill="#fff"/>
    <path id="Path_23678" data-name="Path 23678" d="M418.043,349.885a24.99,24.99,0,1,0,25.014,24.991h0A25.03,25.03,0,0,0,418.043,349.885Zm13.627,33.273-5.338,5.331L418.04,380.2l-8.294,8.284-5.338-5.331,8.294-8.285-8.294-8.284,5.338-5.332,8.294,8.284,8.293-8.284,5.338,5.332-8.294,8.284Z" transform="translate(112.819 228.975)" fill="#fff"/>
  </g>
</svg>
