<svg xmlns="http://www.w3.org/2000/svg" xmlns:xlink="http://www.w3.org/1999/xlink" width="137" height="128" viewBox="0 0 137 128">
  <defs>
    <clipPath id="clip-path">
      <rect id="Rectangle_18563" data-name="Rectangle 18563" width="137" height="128" transform="translate(263 498)"/>
    </clipPath>
  </defs>
  <g id="not_connected_black" transform="translate(-263 -498)" clip-path="url(#clip-path)">
    <path id="Path_23674" data-name="Path 23674" d="M1104.34,1.065a3.637,3.637,0,0,0-5.136,0l-23.93,23.951L1062.347,12.11a6.456,6.456,0,0,0-9.121-.19l-.09.094-12.856,12.827a3.626,3.626,0,0,0,0,5.136L1075.4,65.067a3.645,3.645,0,0,0,5.146,0L1093.4,52.239a6.441,6.441,0,0,0,.01-9.113s-.01-.008-.01-.012L1080.41,30.143,1104.36,6.2a3.644,3.644,0,0,0,0-5.136Zm-30.328,42.771a3.633,3.633,0,0,1-5.136,0l-7.359-7.335a3.636,3.636,0,0,1,5.146-5.136l7.359,7.348a3.628,3.628,0,0,1,0,5.123Z" transform="translate(-716.48 498)"/>
    <path id="Path_23675" data-name="Path 23675" d="M630.173,770.485a3.818,3.818,0,0,0-5.395,0l0,0-5.709,5.706-18.39-18.368,5.708-5.705a3.818,3.818,0,0,0-5.4-5.393l-5.708,5.706-5.86-5.84a2.548,2.548,0,0,0-3.6,0L581.9,750.5a2.542,2.542,0,0,0-.013,3.594.145.145,0,0,0,.013.013c.987.978-.131-.139,7.126,7.113l33.758,33.72a2.545,2.545,0,0,0,3.6,0l.005,0,3.915-3.911a2.547,2.547,0,0,0,0-3.6l-5.855-5.849,5.708-5.705a3.806,3.806,0,0,0,.021-5.388C630.177,770.485,630.173,770.485,630.173,770.485Z" transform="translate(-283.954 -206.067)"/>
    <path id="Path_23676" data-name="Path 23676" d="M10.694,1705.65a2.427,2.427,0,0,0,0,3.41l1.458,1.47L1.118,1721.55a3.821,3.821,0,0,0,5.408,5.4l11.038-11.03,1.462,1.46a2.426,2.426,0,0,0,3.42,0l6.909-6.82-11.839-11.8Z" transform="translate(264.828 -1106.12)"/>
    <path id="Path_23677" data-name="Path 23677" d="M350.822,1067.02a3.644,3.644,0,0,0-1.044,2.97l1.658,15.06,15.336,15.31,14.793,1.63a3.642,3.642,0,0,0,2.929-1l10.955-10.62-34.006-33.96Z" transform="translate(-65.44 -499.554)"/>
    <path id="Path_23678" data-name="Path 23678" d="M1079.138,938.154A25.047,25.047,0,1,0,1104.21,963.2,25.068,25.068,0,0,0,1079.138,938.154Zm13.667,33.35-5.357,5.345-8.31-8.3-8.321,8.282-5.357-5.344,8.321-8.3-8.321-8.3,5.357-5.345,8.311,8.3,8.32-8.3,5.347,5.345-8.311,8.3Z" transform="translate(-706.268 -362.242)"/>
  </g>
</svg>
