<svg xmlns="http://www.w3.org/2000/svg" width="535" height="535" viewBox="0 0 535 535">
  <g id="Group_11709" data-name="Group 11709" transform="translate(368 -12251)">
    <g id="Ellipse_432" data-name="Ellipse 432" transform="translate(-368 12251)" fill="#fff" stroke="#597bd9" stroke-width="3">
      <circle cx="267.5" cy="267.5" r="267.5" stroke="none"/>
      <circle cx="267.5" cy="267.5" r="266" fill="none"/>
    </g>
    <g id="user_2_" data-name="user (2)" transform="translate(-253.215 12347.901)">
      <g id="Group_11706" data-name="Group 11706" transform="translate(64.118)">
        <g id="Group_11705" data-name="Group 11705" transform="translate(0)">
          <path id="Path_23672" data-name="Path 23672" d="M199.345,0A88.554,88.554,0,1,0,287.9,88.554,88.789,88.789,0,0,0,199.345,0Z" transform="translate(-110.791)" fill="#7c7c7c"/>
        </g>
      </g>
      <g id="Group_11708" data-name="Group 11708" transform="translate(0 183.443)">
        <g id="Group_11707" data-name="Group 11707">
          <path id="Path_23673" data-name="Path 23673" d="M328.809,312.272a82.555,82.555,0,0,0-8.894-16.241c-17.788-26.3-45.243-43.7-76.179-47.951a16.3,16.3,0,0,0-11.214,2.707,94.392,94.392,0,0,1-111.37,0,14.509,14.509,0,0,0-11.214-2.707A109.273,109.273,0,0,0,33.759,296.03a95.187,95.187,0,0,0-8.894,16.241,8.223,8.223,0,0,0,.386,7.348,154.3,154.3,0,0,0,10.441,15.468A146.968,146.968,0,0,0,53.481,355.2a231.751,231.751,0,0,0,17.788,15.468,176.343,176.343,0,0,0,210.364,0A169.989,169.989,0,0,0,299.421,355.2a178.594,178.594,0,0,0,17.788-20.108,135.59,135.59,0,0,0,10.441-15.468A6.6,6.6,0,0,0,328.809,312.272Z" transform="translate(-24.165 -247.841)" fill="#7c7c7c"/>
        </g>
      </g>
    </g>
  </g>
</svg>
