<svg xmlns="http://www.w3.org/2000/svg" width="22.659" height="20.645" viewBox="0 0 22.659 20.645">
  <g id="Group_12143" data-name="Group 12143" transform="translate(-6055.312 -1441.966)">
    <g id="Group_12142" data-name="Group 12142" transform="translate(-5 7.772)">
      <path id="Subtraction_14" data-name="Subtraction 14" d="M7.467,20.645H1.179A1.226,1.226,0,0,1,0,19.382v-9.27H.786v.842a.408.408,0,0,0,.393.421H7.467a.408.408,0,0,0,.392-.421V8.775a1.1,1.1,0,0,1-.392.072H1.179a1.1,1.1,0,0,1-.393-.072v.547H0V1.264A1.226,1.226,0,0,1,1.179,0H7.467A1.225,1.225,0,0,1,8.646,1.264V19.382A1.225,1.225,0,0,1,7.467,20.645ZM.786,18.887v.494a.408.408,0,0,0,.393.421H7.467a.408.408,0,0,0,.392-.421v-.494a1.1,1.1,0,0,1-.392.073H1.179A1.105,1.105,0,0,1,.786,18.887Zm0-3.371V17.7a.408.408,0,0,0,.393.421H7.467A.408.408,0,0,0,7.86,17.7V15.517a1.1,1.1,0,0,1-.392.073H1.179A1.105,1.105,0,0,1,.786,15.517Zm0-3.371v2.179a.408.408,0,0,0,.393.421H7.467a.408.408,0,0,0,.392-.421V12.146a1.1,1.1,0,0,1-.392.073H1.179A1.105,1.105,0,0,1,.786,12.146Zm0-6.741V7.584A.408.408,0,0,0,1.179,8H7.467a.408.408,0,0,0,.392-.421V5.4a1.1,1.1,0,0,1-.392.072H1.179A1.1,1.1,0,0,1,.786,5.4ZM1.179.842a.408.408,0,0,0-.393.421V4.213a.408.408,0,0,0,.393.421H7.467a.408.408,0,0,0,.392-.421V1.264A.408.408,0,0,0,7.467.842ZM14.934,18.96h-5.5v-.843h5.5a.408.408,0,0,0,.393-.421V17.2a1.106,1.106,0,0,1-.393.072h-5.5v-.842h5.5a.408.408,0,0,0,.393-.421v-.842h.786V17.7A1.228,1.228,0,0,1,14.934,18.96Zm-7.86-1.686H3.143v-.842h3.93v.841Zm-4.716,0H1.572v-.842h.786v.841ZM14.541,15.59H11v-.843h3.537v.842Zm-4.323,0H9.431v-.843h.787v.842Zm5.895-1.211h-.786v-.547a1.106,1.106,0,0,1-.393.072h-5.5v-.842h5.5a.408.408,0,0,0,.393-.421V10.461a1.106,1.106,0,0,1-.393.072h-5.5V9.691h5.5a.41.41,0,0,0,.393-.421V7.09a1.13,1.13,0,0,1-.393.072h-5.5V6.32h5.5a.41.41,0,0,0,.393-.422V2.948a.41.41,0,0,0-.393-.421h-5.5V1.685h5.5a1.228,1.228,0,0,1,1.179,1.264V14.377ZM7.074,13.9H3.143v-.842h3.93V13.9Zm-4.716,0H1.572v-.842h.786V13.9Zm12.183-1.685H11v-.843h3.537v.842Zm-4.323,0H9.431v-.843h.787v.842ZM7.074,10.533H3.143V9.691h3.93v.841Zm-4.716,0H1.572V9.691h.786v.841ZM14.541,8.847H11V8h3.537v.841Zm-4.323,0H9.431V8h.787v.841ZM7.074,7.163H3.143V6.32h3.93v.841Zm-4.716,0H1.572V6.32h.786v.841Z" transform="translate(6066.858 1434.194)" fill="#fff"/>
      <path id="Path_23697" data-name="Path 23697" d="M98.369,8.282a.333.333,0,0,0,.356-.2L100.8,3.86a.459.459,0,0,0,0-.4.341.341,0,0,0-.3-.2H99.233L98.766.329A.376.376,0,0,0,98.479,0a.335.335,0,0,0-.359.206L96.041,4.677a.459.459,0,0,0,.007.4.34.34,0,0,0,.3.2h1.275l.464,2.694h0A.376.376,0,0,0,98.369,8.282Zm-.464-3.817h-.978L98.263,1.6,98.6,3.734a.365.365,0,0,0,.341.329h.962l-1.323,2.69-.338-1.964a.364.364,0,0,0-.34-.323Z" transform="translate(5964.312 1440.373)" fill="#fff"/>
    </g>
  </g>
</svg>