<svg id="Icon_ionic-md-log-out" data-name="Icon ionic-md-log-out" xmlns="http://www.w3.org/2000/svg" width="20.198" height="20.198" viewBox="0 0 20.198 20.198">
  <path id="Path_40" data-name="Path 40" d="M13.5,16.95h9.211l-2.117,2.17,1.452,1.452,4.661-4.661L22.045,11.25,20.54,12.7l2.17,2.17H13.5Z" transform="translate(-6.508 -5.812)" fill="#fff"/>
  <g id="Group_164" data-name="Group 164" transform="translate(0 0)">
    <path id="Path_41" data-name="Path 41" d="M13.46,21.5a8.026,8.026,0,0,1,0-16.052,7.956,7.956,0,0,1,5.656,2.34l1.471-1.471a10.731,10.731,0,0,0-1.345-1.126,10.107,10.107,0,1,0,1.34,15.435L19.116,19.16A7.947,7.947,0,0,1,13.46,21.5Z" transform="translate(-3.375 -3.375)" fill="#fff"/>
    <path id="Path_42" data-name="Path 42" d="M31.458,17.958h.058v.058h-.058Z" transform="translate(-12.066 -7.888)" fill="#fff"/>
  </g>
</svg>
