<svg id="delete" xmlns="http://www.w3.org/2000/svg" width="34.86" height="41.271" viewBox="0 0 34.86 41.271">
  <rect id="backgroundrect" width="34.86" height="41.27" fill="none"/>
  <g id="Group_11702" data-name="Group 11702">
    <g id="Delete-2" data-name="Delete">
      <path id="Path_30" data-name="Path 30" d="M30.6,9.08H4.255V37.018a3.254,3.254,0,0,0,3.253,3.253H27.35A3.254,3.254,0,0,0,30.6,37.018Z" fill="none" stroke="#fff" stroke-linecap="round" stroke-linejoin="round" stroke-width="2"/>
      <path id="Path_31" data-name="Path 31" d="M33.858,7.059A2.018,2.018,0,0,0,31.839,5.04H3.019A2.018,2.018,0,0,0,1,7.059H1A2.018,2.018,0,0,0,3.019,9.078h28.82a2.018,2.018,0,0,0,2.019-2.019Z" fill="none" stroke="#fff" stroke-linecap="round" stroke-linejoin="round" stroke-width="2"/>
      <path id="Path_32" data-name="Path 32" d="M22.958,2.094A1.5,1.5,0,0,0,21.512,1H13.58a1.5,1.5,0,0,0-1.413.993l-1.1,3.046h12.72Z" fill="none" stroke="#fff" stroke-linecap="round" stroke-linejoin="round" stroke-width="2"/>
      <path id="Path_33" data-name="Path 33" d="M11.071,20.082V32.761" fill="none" stroke="#fff" stroke-linecap="round" stroke-linejoin="round" stroke-width="2"/>
      <path id="Path_34" data-name="Path 34" d="M23.788,20.082V32.761" fill="none" stroke="#fff" stroke-linecap="round" stroke-linejoin="round" stroke-width="2"/>
      <path id="Path_35" data-name="Path 35" d="M17.429,16.464V36.379" fill="none" stroke="#fff" stroke-linecap="round" stroke-linejoin="round" stroke-width="2"/>
    </g>
  </g>
</svg>
