<svg xmlns="http://www.w3.org/2000/svg" width="33" height="33" viewBox="0 0 33 33">
  <g id="Edit" transform="translate(-843 -237)">
    <g id="Path_142" data-name="Path 142" transform="translate(843 237)" fill="#fff">
      <path d="M 16.5 31.5 C 12.4933500289917 31.5 8.726519584655762 29.93972969055176 5.893400192260742 27.10659980773926 C 3.060270071029663 24.27347946166992 1.5 20.50665092468262 1.5 16.5 C 1.5 12.4933500289917 3.060270071029663 8.726519584655762 5.893400192260742 5.893400192260742 C 8.726519584655762 3.060270071029663 12.4933500289917 1.5 16.5 1.5 C 20.50665092468262 1.5 24.27347946166992 3.060270071029663 27.10659980773926 5.893400192260742 C 29.93972969055176 8.726519584655762 31.5 12.4933500289917 31.5 16.5 C 31.5 20.50665092468262 29.93972969055176 24.27347946166992 27.10659980773926 27.10659980773926 C 24.27347946166992 29.93972969055176 20.50665092468262 31.5 16.5 31.5 Z" stroke="none"/>
      <path d="M 16.5 3 C 12.89402008056641 3 9.503870010375977 4.404239654541016 6.954059600830078 6.954059600830078 C 4.404239654541016 9.503870010375977 3 12.89402008056641 3 16.5 C 3 20.10597991943359 4.404239654541016 23.49612998962402 6.954059600830078 26.04594039916992 C 9.503870010375977 28.59576034545898 12.89402008056641 30 16.5 30 C 20.10597991943359 30 23.49612998962402 28.59576034545898 26.04594039916992 26.04594039916992 C 28.59576034545898 23.49612998962402 30 20.10597991943359 30 16.5 C 30 12.89402008056641 28.59576034545898 9.503870010375977 26.04594039916992 6.954059600830078 C 23.49612998962402 4.404239654541016 20.10597991943359 3 16.5 3 M 16.5 0 C 25.61269950866699 0 33 7.387300491333008 33 16.5 C 33 25.61269950866699 25.61269950866699 33 16.5 33 C 7.387300491333008 33 0 25.61269950866699 0 16.5 C 0 7.387300491333008 7.387300491333008 0 16.5 0 Z" stroke="none" fill="#1b222e"/>
    </g>
    <path id="Icon_material-mode-edit" data-name="Icon material-mode-edit" d="M4.5,16.751v3.224H7.512l8.885-9.51L13.385,7.241ZM18.727,7.972a.9.9,0,0,0,0-1.212l-1.88-2.012a.763.763,0,0,0-1.133,0l-1.47,1.574,3.012,3.224,1.47-1.574Z" transform="translate(847.771 241.264)" fill="#1b222e"/>
  </g>
</svg>
