<svg id="x-mark" xmlns="http://www.w3.org/2000/svg" width="20.814" height="20.814" viewBox="0 0 20.814 20.814">
  <path id="Path_23267" data-name="Path 23267" d="M10.407,20.814A10.407,10.407,0,1,1,20.814,10.407,10.419,10.419,0,0,1,10.407,20.814Zm0-19.328a8.921,8.921,0,1,0,8.921,8.921A8.931,8.931,0,0,0,10.407,1.487Zm0,0" fill="#fff"/>
  <path id="Path_23268" data-name="Path 23268" d="M154.464,155.209a.741.741,0,0,1-.526-.218l-7.434-7.434a.743.743,0,0,1,1.051-1.051l7.434,7.434a.743.743,0,0,1-.525,1.269Zm0,0" transform="translate(-140.34 -140.341)" fill="#fff"/>
  <path id="Path_23269" data-name="Path 23269" d="M147.029,155.207a.743.743,0,0,1-.525-1.269l7.434-7.434a.743.743,0,1,1,1.051,1.051l-7.434,7.434A.741.741,0,0,1,147.029,155.207Zm0,0" transform="translate(-140.339 -140.34)" fill="#fff"/>
</svg>
